<svg xmlns="http://www.w3.org/2000/svg" width="121" height="81.967" viewBox="0 0 121 81.967"><defs><style>.a{fill:#ed1f34;}.b{fill:#fff;}.c{fill:#103b9b;}</style></defs><g transform="translate(-0.002 -129.032)"><path class="a" d="M45.78,436.383,88.3,400.952h46.187a1.8,1.8,0,0,0,1.8-1.8V399h4.206v.151a1.8,1.8,0,0,0,1.8,1.8H156.1v35.431Z" transform="translate(-38.854 -229.135)"/><path class="a" d="M144.635,401.952A1.952,1.952,0,0,1,142.684,400h-3.9a1.952,1.952,0,0,1-1.952,1.952H90.7L48.542,437.081H158.3V401.952Z" transform="translate(-41.198 -229.984)"/><path class="b" d="M144.635,189.968H158.3V154.839H48.542L90.7,189.968h46.132a1.952,1.952,0,0,1,1.952,1.952h3.9A1.952,1.952,0,0,1,144.635,189.968Z" transform="translate(-41.198 -21.904)"/><path class="c" d="M24.807,167.35l42.226,35.188L24.807,237.726Z" transform="translate(-21.053 -32.522)"/><path class="c" d="M67.646,204.35,25.807,169.485v69.731Z" transform="translate(-21.902 -34.334)"/><path d="M119.05,129.032H1.953c-.021,0-.041,0-.062,0-.041,0-.083,0-.124.006s-.067.009-.1.014-.058.008-.087.013-.072.016-.107.025-.052.012-.077.02-.068.023-.1.035-.053.018-.079.029-.06.027-.09.041-.057.026-.085.041-.051.029-.077.044-.059.034-.088.054-.046.033-.068.049-.057.041-.085.063-.047.041-.07.062-.048.042-.071.064-.061.064-.09.1c-.012.014-.025.026-.037.04l0,0c-.041.05-.081.1-.117.156l-.01.017c-.031.048-.062.1-.089.147-.013.025-.025.051-.037.077s-.032.063-.046.1-.023.062-.034.093-.022.057-.031.087-.02.074-.029.112-.013.048-.018.073q-.018.089-.027.179s0,.007,0,.01c-.007.065-.01.13-.01.195a.018.018,0,0,1,0,0v78.064s0,0,0,0a1.908,1.908,0,0,0,.01.195s0,.008,0,.012c.007.06.015.119.027.178,0,.025.013.049.018.074s.017.074.029.111.021.058.031.087.021.062.034.092.03.065.046.1.023.051.036.075c.028.052.058.1.091.15l.009.014q.055.081.117.156l0,0c.007.008.014.015.021.023.037.043.075.085.116.124.02.019.04.037.061.055s.06.053.091.078.049.037.074.055.061.042.092.062.051.032.078.047.069.037.1.054.049.025.074.036.081.033.123.048l.064.023c.048.016.1.028.148.041l.047.012c.058.012.117.021.177.028l.025,0a1.988,1.988,0,0,0,.207.011h117.1A1.952,1.952,0,0,0,121,209.047V130.984A1.953,1.953,0,0,0,119.05,129.032ZM45.744,170.016,3.9,204.881V135.15ZM7.344,207.1,49.5,171.967H95.63a1.952,1.952,0,1,0,0-3.9H49.5L7.344,132.935H117.1v35.129H103.437a1.952,1.952,0,1,0,0,3.9H117.1V207.1Z"/></g></svg>