<svg xmlns="http://www.w3.org/2000/svg" width="182.734" height="51.853" viewBox="0 0 182.734 51.853"><defs><style>.a{fill:#009;}.b{fill:#be0000;}</style></defs><path class="a" d="M491.245,153.206v-7.184a3.725,3.725,0,0,1-7.45,0l0-23.17c0-.016,0-.032,0-.048h0a3.344,3.344,0,0,0-6.687,0h0v23.219a10.411,10.411,0,0,0,14.955,9.369A3.309,3.309,0,0,1,491.245,153.206Z" transform="translate(-409.462 -104.697)"/><path class="a" d="M344.525,78.277H329.864a3.344,3.344,0,0,1,0-6.687h14.662a3.344,3.344,0,0,1,0,6.687Z" transform="translate(-280.955 -63.847)"/><path class="b" d="M416.717,73.59l-2,4.66h5.071a3.345,3.345,0,0,0,3.074-2.025h0a3.29,3.29,0,0,0,.2-.645,3.378,3.378,0,0,0,.067-.672c0-.111-.006-.221-.016-.33,0-.041-.012-.082-.018-.122-.009-.066-.018-.132-.029-.2s-.028-.122-.044-.182c-.01-.043-.021-.087-.032-.128-.021-.066-.044-.132-.067-.2-.013-.035-.025-.072-.04-.107-.025-.062-.054-.122-.084-.183-.018-.038-.035-.076-.054-.113-.028-.053-.059-.1-.088-.154s-.051-.088-.079-.131-.057-.079-.085-.119-.07-.1-.11-.147c-.025-.031-.053-.06-.079-.091-.045-.051-.091-.1-.138-.153-.025-.026-.053-.05-.079-.075-.051-.048-.1-.1-.158-.144-.032-.026-.067-.051-.1-.078-.051-.04-.1-.079-.154-.116s-.109-.069-.163-.1c-.037-.022-.073-.047-.11-.067a3.268,3.268,0,0,0-.3-.145,3.317,3.317,0,0,0-.645-.2,3.378,3.378,0,0,0-.672-.067h0A3.353,3.353,0,0,0,416.717,73.59Z" transform="translate(-356.221 -63.821)"/><path class="a" d="M971.131,94.749a3.6,3.6,0,0,1-3.594-3.594V74.924a3.344,3.344,0,0,0-6.687,0V91.153a10.3,10.3,0,0,0,6.938,9.721V98.091A3.342,3.342,0,0,1,971.131,94.749Z" transform="translate(-822.263 -63.839)"/><path class="b" d="M1018.441,71.58a3.344,3.344,0,0,0-3.344,3.344V91.153a3.6,3.6,0,0,1-3.594,3.594,3.344,3.344,0,0,0-3.344,3.344v14.141a3.344,3.344,0,1,0,6.687,0V100.874a10.3,10.3,0,0,0,6.938-9.721V74.924A3.344,3.344,0,0,0,1018.441,71.58Z" transform="translate(-862.635 -63.839)"/><path class="a" d="M340.44,332.687h14.641a3.344,3.344,0,1,0,0-6.687h-9.591l-2,4.66A3.347,3.347,0,0,1,340.44,332.687Z" transform="translate(-292.834 -280.949)"/><path class="b" d="M466.46,79.4c.026.031.054.06.079.091C466.514,79.46,466.486,79.431,466.46,79.4Z" transform="translate(-400.374 -70.512)"/><path class="b" d="M471.87,91.31c.006.041.013.081.018.122C471.883,91.391,471.876,91.35,471.87,91.31Z" transform="translate(-404.99 -80.675)"/><path class="b" d="M467.75,81.02c.029.04.059.079.085.119C467.807,81.1,467.778,81.06,467.75,81.02Z" transform="translate(-401.474 -71.894)"/><path class="b" d="M464.98,77.85c.026.025.054.048.079.075Z" transform="translate(-399.111 -69.189)"/><path class="b" d="M468.87,82.72c.031.051.062.1.088.154C468.93,82.821,468.9,82.77,468.87,82.72Z" transform="translate(-402.43 -73.345)"/><path class="b" d="M469.84,84.53c.029.06.059.12.084.183C469.9,84.65,469.869,84.59,469.84,84.53Z" transform="translate(-403.258 -74.889)"/><path class="b" d="M470.26,99.607a3.423,3.423,0,0,0,.2-.647,3.416,3.416,0,0,1-.2.645Z" transform="translate(-403.616 -87.203)"/><path class="b" d="M470.68,86.51c.023.065.048.131.068.2C470.728,86.641,470.7,86.575,470.68,86.51Z" transform="translate(-403.975 -76.579)"/><path class="b" d="M461.05,74.87c.054.034.11.066.163.1C461.16,74.935,461.106,74.9,461.05,74.87Z" transform="translate(-395.757 -66.646)"/><path class="b" d="M471.37,88.73c.016.06.032.12.044.182C471.4,88.85,471.385,88.79,471.37,88.73Z" transform="translate(-404.564 -78.474)"/><path class="b" d="M463.22,76.35c.034.026.067.05.1.078C463.287,76.4,463.252,76.375,463.22,76.35Z" transform="translate(-397.609 -67.909)"/><path class="a" d="M33.289,102.222a3.341,3.341,0,0,0-3.341,3.341h0v3.326h-3.72a3.729,3.729,0,0,1-3.725-3.725V81.993a3.725,3.725,0,0,1,7.45,0V72.272A10.406,10.406,0,0,0,15.81,81.993v23.17a10.425,10.425,0,0,0,10.408,10.413h6.91c.054,0,.107.009.161.009s.107-.006.161-.009h.067v0a3.338,3.338,0,0,0,3.11-3.326h0v-6.686A3.339,3.339,0,0,0,33.289,102.222Z" transform="translate(-15.81 -63.839)"/><path class="a" d="M196.062,108.9h-4.6a3.729,3.729,0,0,1-3.725-3.725v-4.418h0V82a3.728,3.728,0,0,1,3.725-3.725,3.344,3.344,0,1,0,0-6.687A10.425,10.425,0,0,0,181.05,82v9.031c0,.022,0,.043,0,.065v14.077a10.425,10.425,0,0,0,10.413,10.413h4.6a3.345,3.345,0,0,0,0-6.69Z" transform="translate(-156.818 -63.847)"/><path class="a" d="M657.907,84.03V75.614a3.344,3.344,0,1,0-6.687,0v37.317a3.344,3.344,0,1,0,6.687,0v-8.313h0V84.03Z" transform="translate(-558.039 -64.427)"/><path class="b" d="M658.8,93.648l12.12-16.769a3.344,3.344,0,1,0-5.42-3.918l-7.587,10.5v8.973l-.642-.881a3.344,3.344,0,0,0-5.4,3.943l6.133,8.4v.028l7.508,10.284a3.344,3.344,0,0,0,5.4-3.943Z" transform="translate(-558.04 -63.835)"/><path class="b" d="M191.489,71.58a3.344,3.344,0,1,1,0,6.687,3.728,3.728,0,0,1,3.725,3.725v9.031a3.725,3.725,0,1,1-7.45,0v.315a3.342,3.342,0,1,0-6.645.554,10.429,10.429,0,0,0,6.645,8.852h0A10.406,10.406,0,0,0,201.9,91.022V81.992A10.424,10.424,0,0,0,191.489,71.58Z" transform="translate(-156.844 -63.839)"/><path class="b" d="M338.136,71.842a3.343,3.343,0,0,0-4.391,1.757l-15.984,37.307c.04-.091.084-.179.131-.267a3.34,3.34,0,0,0,2.937,4.929h.026a3.266,3.266,0,0,0,.478-.038h0a3.422,3.422,0,0,0,.673-.176.382.382,0,0,0,.037-.015,3.3,3.3,0,0,0,.365-.169c.015-.009.031-.015.047-.023.038-.021.075-.044.111-.067.056-.034.111-.069.166-.107l.07-.05a3.37,3.37,0,0,0,.478-.425h0a3.355,3.355,0,0,0,.623-.956l2-4.66h0l13.989-32.648A3.346,3.346,0,0,0,338.136,71.842Z" transform="translate(-273.25 -63.831)"/><path class="b" d="M115.551,18.79a3.341,3.341,0,0,0-3.341,3.341v5.092h0v9.721s0-.01,0-.015V60.512h0a3.341,3.341,0,1,1,6.681,0h0V22.131A3.341,3.341,0,0,0,115.551,18.79Z" transform="translate(-98.073 -18.79)"/><path class="b" d="M497.938,74.921A3.341,3.341,0,0,0,494.6,71.58h-7.068a10.423,10.423,0,0,0-10.4,10.17c0,.065-.006.131-.006.2v.048h0a3.342,3.342,0,0,0,6.684,0h0a3.728,3.728,0,0,1,3.725-3.725c.016,0,.031,0,.045,0h3.678l0,34.085a3.344,3.344,0,0,0,6.689,0Z" transform="translate(-409.47 -63.839)"/><path class="b" d="M816.818,74.921a3.341,3.341,0,0,0-3.341-3.341h-7.068A10.424,10.424,0,0,0,796,81.993h6.689a3.728,3.728,0,0,1,3.725-3.725c.016,0,.031,0,.046,0h3.678l0,34.085a3.344,3.344,0,0,0,6.689,0Z" transform="translate(-681.588 -63.839)"/><ellipse class="b" cx="3.344" cy="3.344" rx="3.344" ry="3.344" transform="translate(114.411 14.763)"/><path class="b" d="M1140.718,74.921a3.341,3.341,0,0,0-3.341-3.341h-7.068A10.424,10.424,0,0,0,1119.9,81.993h6.689a3.728,3.728,0,0,1,3.725-3.725c.016,0,.031,0,.045,0h3.678l0,34.085a3.344,3.344,0,0,0,6.688,0Z" transform="translate(-957.989 -63.839)"/><ellipse class="b" cx="3.344" cy="3.344" rx="3.344" ry="3.344" transform="translate(161.911 14.763)"/><path class="a" d="M810.115,153.206v-7.184a3.725,3.725,0,0,1-7.45,0l0-23.17c0-.016,0-.032,0-.048h0a3.344,3.344,0,0,0-6.687,0h0v23.219a10.411,10.411,0,0,0,14.955,9.369A3.316,3.316,0,0,1,810.115,153.206Z" transform="translate(-681.57 -104.697)"/><path class="a" d="M1137.36,142.679a3.344,3.344,0,0,0-3.344,3.344h0a3.725,3.725,0,0,1-7.45,0V122.8a3.344,3.344,0,1,0-6.687,0v23.219h0a10.425,10.425,0,0,0,10.413,10.413,10.531,10.531,0,0,0,4.54-1.044,10.426,10.426,0,0,0,5.872-9.369A3.346,3.346,0,0,0,1137.36,142.679Z" transform="translate(-957.972 -104.697)"/></svg>