<svg xmlns="http://www.w3.org/2000/svg" width="272" height="136.76" viewBox="0 0 272 136.76"><defs><style>.a{fill:#fff;}</style></defs><g transform="translate(-467.1 -294.2)"><g transform="translate(513.82 334.424)"><path class="a" d="M636.1,440.1h2.018v14.21H636.1Z" transform="translate(-636.1 -439.989)"/><path class="a" d="M669.219,440.1v14.21H667.56l-8.515-10.588V454.31H657V440.1h1.659l8.515,10.588V440.1Z" transform="translate(-651.222 -439.989)"/><path class="a" d="M712.266,441.869H707.4V440.1h11.749v1.769h-4.866v12.44h-2.018Z" transform="translate(-687.689 -439.989)"/><path class="a" d="M766.312,452.54v1.769H756V440.1h10.035v1.769h-7.99v4.368h7.132v1.714h-7.132v4.589Z" transform="translate(-722.854 -439.989)"/><path class="a" d="M812.882,454.237l-3.069-4.368c-.387.028-.663.028-.885.028h-3.511v4.313H803.4V440h5.529a6.516,6.516,0,0,1,4.34,1.327,4.5,4.5,0,0,1,1.576,3.622,4.82,4.82,0,0,1-.8,2.792,4.6,4.6,0,0,1-2.322,1.686l3.373,4.755h-2.211Zm-1.078-6.884a2.951,2.951,0,0,0,1.023-2.378A2.87,2.87,0,0,0,811.8,442.6a4.515,4.515,0,0,0-2.93-.829h-3.456v6.386h3.456A4.314,4.314,0,0,0,811.8,447.354Z" transform="translate(-757.15 -439.917)"/><path class="a" d="M867.192,440.1v14.21h-1.659l-8.515-10.588V454.31H855V440.1h1.659l8.515,10.588V440.1Z" transform="translate(-794.485 -439.989)"/><path class="a" d="M916.024,450.671h-7.547L906.9,454.21h-2.1L911.241,440h2.018l6.441,14.21h-2.129Zm-.719-1.6-3.069-6.966-3.069,6.966Z" transform="translate(-830.518 -439.917)"/><path class="a" d="M959.466,441.869H954.6V440.1h11.749v1.769h-4.866v12.44h-2.018v-12.44Z" transform="translate(-866.551 -439.989)"/><path class="a" d="M1003.3,440.1h2.018v14.21H1003.3Z" transform="translate(-901.787 -439.989)"/><path class="a" d="M1023.6,453.246a7,7,0,0,1-2.709-2.6,7.393,7.393,0,0,1,0-7.409,6.808,6.808,0,0,1,2.709-2.6,8.175,8.175,0,0,1,3.87-.94,7.759,7.759,0,0,1,3.843.94,7,7,0,0,1,2.709,2.6,7.682,7.682,0,0,1,0,7.464,6.816,6.816,0,0,1-2.709,2.6,7.834,7.834,0,0,1-3.843.94A9.02,9.02,0,0,1,1023.6,453.246Zm6.69-1.576a5.15,5.15,0,0,0,1.963-1.963,5.783,5.783,0,0,0,0-5.584,5.15,5.15,0,0,0-1.963-1.963,5.89,5.89,0,0,0-5.64,0,5.036,5.036,0,0,0-1.99,1.963,5.783,5.783,0,0,0,0,5.584,5.036,5.036,0,0,0,1.99,1.963,5.779,5.779,0,0,0,2.82.719A5.927,5.927,0,0,0,1030.295,451.67Z" transform="translate(-913.799 -439.7)"/><path class="a" d="M1096.291,440.1v14.21h-1.659l-8.515-10.588V454.31H1084.1V440.1h1.659l8.515,10.588V440.1Z" transform="translate(-960.25 -439.989)"/><path class="a" d="M1145.124,450.671h-7.547L1136,454.21h-2.1l6.441-14.21h2.018l6.441,14.21h-2.129Zm-.719-1.6-3.069-6.966-3.069,6.966Z" transform="translate(-996.283 -439.917)"/><path class="a" d="M1193.628,440.1h2.018v12.44h7.685v1.769H1193.6l.028-14.21Z" transform="translate(-1039.479 -439.989)"/><path class="a" d="M647.673,522.772a3.611,3.611,0,0,1,.719,2.294,3.308,3.308,0,0,1-1.382,2.848,6.9,6.9,0,0,1-4.036,1H636.2V514.7h6.358a6.345,6.345,0,0,1,3.76.968,3.149,3.149,0,0,1,1.327,2.709,3.442,3.442,0,0,1-.525,1.935,3.348,3.348,0,0,1-1.382,1.244A3.31,3.31,0,0,1,647.673,522.772Zm-9.482-6.441v4.534h4.147a4.176,4.176,0,0,0,2.405-.581,2.129,2.129,0,0,0,0-3.373,4.176,4.176,0,0,0-2.405-.581Zm7.271,10.367a2,2,0,0,0,.885-1.8c0-1.576-1.161-2.378-3.483-2.378h-4.672v4.727h4.672A4.977,4.977,0,0,0,645.461,526.7Z" transform="translate(-636.172 -493.966)"/><path class="a" d="M690.976,527.444a6.411,6.411,0,0,1-1.576-4.672V514.7h2.018v7.99c0,3.041,1.327,4.561,4.009,4.561a3.875,3.875,0,0,0,2.986-1.133,4.935,4.935,0,0,0,1.023-3.428V514.7H701.4v8.072a6.411,6.411,0,0,1-1.576,4.672,6.9,6.9,0,0,1-8.846,0Z" transform="translate(-674.665 -493.966)"/><path class="a" d="M743.65,528.044a6.527,6.527,0,0,1-2.35-1.3l.746-1.576a6.28,6.28,0,0,0,2.073,1.189,7.7,7.7,0,0,0,2.6.47,4.5,4.5,0,0,0,2.626-.608,1.861,1.861,0,0,0,.885-1.6,1.6,1.6,0,0,0-.47-1.189,3.367,3.367,0,0,0-1.189-.691c-.47-.166-1.133-.332-1.991-.553a20.465,20.465,0,0,1-2.6-.774,4.268,4.268,0,0,1-1.686-1.189,3.112,3.112,0,0,1-.691-2.156,3.557,3.557,0,0,1,.608-2.046,3.95,3.95,0,0,1,1.825-1.465A7.426,7.426,0,0,1,747.05,514a9.625,9.625,0,0,1,2.488.332,6.656,6.656,0,0,1,2.1.94l-.664,1.631a7.353,7.353,0,0,0-1.908-.857,7.1,7.1,0,0,0-1.99-.3,4.442,4.442,0,0,0-2.6.636,1.915,1.915,0,0,0-.857,1.631,1.524,1.524,0,0,0,.5,1.189,3.308,3.308,0,0,0,1.216.719,14.589,14.589,0,0,0,1.963.525,18.607,18.607,0,0,1,2.571.774,4.187,4.187,0,0,1,1.686,1.189,3.084,3.084,0,0,1,.691,2.129,3.556,3.556,0,0,1-.608,2.046,4.182,4.182,0,0,1-1.852,1.465,7.684,7.684,0,0,1-3.041.525A10.7,10.7,0,0,1,743.65,528.044Z" transform="translate(-712.217 -493.46)"/><path class="a" d="M789.8,514.7h2.018v14.21H789.8Z" transform="translate(-747.31 -493.966)"/><path class="a" d="M822.992,514.7v14.21h-1.659l-8.515-10.588V528.91H810.8V514.7h1.659l8.515,10.588V514.7Z" transform="translate(-762.504 -493.966)"/><path class="a" d="M878.812,527.14v1.769H868.5V514.7h10.035v1.769h-7.989v4.368h7.132v1.714h-7.132v4.589Z" transform="translate(-804.253 -493.966)"/><path class="a" d="M913.45,528.044a6.529,6.529,0,0,1-2.35-1.3l.746-1.576a6.281,6.281,0,0,0,2.073,1.189,7.7,7.7,0,0,0,2.6.47,4.494,4.494,0,0,0,2.626-.608,1.861,1.861,0,0,0,.885-1.6,1.6,1.6,0,0,0-.47-1.189,3.368,3.368,0,0,0-1.189-.691c-.47-.166-1.133-.332-1.99-.553a20.459,20.459,0,0,1-2.6-.774,4.268,4.268,0,0,1-1.686-1.189,3.112,3.112,0,0,1-.691-2.156,3.556,3.556,0,0,1,.608-2.046,3.95,3.95,0,0,1,1.824-1.465A7.427,7.427,0,0,1,916.85,514a9.624,9.624,0,0,1,2.488.332,6.658,6.658,0,0,1,2.1.94l-.664,1.631a7.349,7.349,0,0,0-1.908-.857,7.1,7.1,0,0,0-1.99-.3,4.442,4.442,0,0,0-2.6.636,1.915,1.915,0,0,0-.857,1.631,1.524,1.524,0,0,0,.5,1.189,3.3,3.3,0,0,0,1.216.719,14.587,14.587,0,0,0,1.963.525,18.6,18.6,0,0,1,2.571.774,4.187,4.187,0,0,1,1.686,1.189,3.084,3.084,0,0,1,.691,2.129,3.559,3.559,0,0,1-.608,2.046,4.183,4.183,0,0,1-1.852,1.465,7.684,7.684,0,0,1-3.041.525A10.543,10.543,0,0,1,913.45,528.044Z" transform="translate(-835.076 -493.46)"/><path class="a" d="M957.25,528.044a6.528,6.528,0,0,1-2.35-1.3l.746-1.576a6.279,6.279,0,0,0,2.073,1.189,7.7,7.7,0,0,0,2.6.47,4.5,4.5,0,0,0,2.626-.608,1.861,1.861,0,0,0,.885-1.6,1.6,1.6,0,0,0-.47-1.189,3.366,3.366,0,0,0-1.189-.691c-.47-.166-1.133-.332-1.99-.553a20.471,20.471,0,0,1-2.6-.774,4.267,4.267,0,0,1-1.686-1.189,3.111,3.111,0,0,1-.691-2.156,3.557,3.557,0,0,1,.608-2.046,3.95,3.95,0,0,1,1.825-1.465A7.426,7.426,0,0,1,960.65,514a9.625,9.625,0,0,1,2.488.332,6.656,6.656,0,0,1,2.1.94l-.663,1.631a7.352,7.352,0,0,0-1.908-.857,7.1,7.1,0,0,0-1.99-.3,4.442,4.442,0,0,0-2.6.636,1.915,1.915,0,0,0-.857,1.631,1.524,1.524,0,0,0,.5,1.189,3.307,3.307,0,0,0,1.216.719,14.587,14.587,0,0,0,1.963.525,18.6,18.6,0,0,1,2.571.774,4.187,4.187,0,0,1,1.686,1.189,3.132,3.132,0,0,1,.691,2.129,3.557,3.557,0,0,1-.608,2.046,4.183,4.183,0,0,1-1.852,1.465,7.684,7.684,0,0,1-3.041.525A10.543,10.543,0,0,1,957.25,528.044Z" transform="translate(-866.768 -493.46)"/><path class="a" d="M647.673,597.372a3.611,3.611,0,0,1,.719,2.294,3.308,3.308,0,0,1-1.382,2.847,6.9,6.9,0,0,1-4.036,1H636.2V589.3h6.358a6.345,6.345,0,0,1,3.76.968,3.149,3.149,0,0,1,1.327,2.709,3.442,3.442,0,0,1-.525,1.935,3.17,3.17,0,0,1-1.382,1.244A3.31,3.31,0,0,1,647.673,597.372Zm-9.482-6.441v4.534h4.147a4.176,4.176,0,0,0,2.405-.581,2.129,2.129,0,0,0,0-3.373,4.176,4.176,0,0,0-2.405-.581Zm7.271,10.339a2,2,0,0,0,.885-1.8c0-1.576-1.161-2.378-3.483-2.378h-4.672v4.727h4.672A4.489,4.489,0,0,0,645.461,601.27Z" transform="translate(-636.172 -547.943)"/><path class="a" d="M690.976,601.944a6.411,6.411,0,0,1-1.576-4.672V589.2h2.018v7.989c0,3.041,1.327,4.561,4.009,4.561a3.875,3.875,0,0,0,2.986-1.133,4.935,4.935,0,0,0,1.023-3.428V589.2H701.4v8.072a6.411,6.411,0,0,1-1.576,4.672,5.912,5.912,0,0,1-4.423,1.6A5.807,5.807,0,0,1,690.976,601.944Z" transform="translate(-674.665 -547.871)"/><path class="a" d="M755.582,603.337l-3.069-4.368c-.387.028-.663.028-.885.028h-3.511v4.313H746.1V589.1h5.529a6.516,6.516,0,0,1,4.34,1.327,4.5,4.5,0,0,1,1.576,3.622,4.82,4.82,0,0,1-.8,2.792,4.6,4.6,0,0,1-2.322,1.686l3.373,4.755h-2.212Zm-1.078-6.884a2.951,2.951,0,0,0,1.023-2.377A2.87,2.87,0,0,0,754.5,591.7a4.514,4.514,0,0,0-2.93-.829h-3.456v6.386h3.456A4.359,4.359,0,0,0,754.5,596.454Z" transform="translate(-715.691 -547.798)"/><path class="a" d="M807.912,601.64v1.769H797.6V589.2h10.035v1.769h-7.99v4.368h7.132v1.714h-7.132v4.589Z" transform="translate(-752.953 -547.871)"/><path class="a" d="M848.324,599.871h-7.547L839.2,603.41h-2.1l6.441-14.21h2.018L852,603.41h-2.129Zm-.719-1.631-3.069-6.966-3.069,6.966Z" transform="translate(-781.534 -547.871)"/><path class="a" d="M896.876,601.944a6.412,6.412,0,0,1-1.576-4.672V589.2h2.018v7.989c0,3.041,1.327,4.561,4.009,4.561a3.875,3.875,0,0,0,2.986-1.133,4.935,4.935,0,0,0,1.023-3.428V589.2H907.3v8.072a6.411,6.411,0,0,1-1.576,4.672,5.913,5.913,0,0,1-4.423,1.6A5.807,5.807,0,0,1,896.876,601.944Z" transform="translate(-823.644 -547.871)"/></g><g transform="translate(467.1 294.2)"><g transform="translate(0 0)"><path class="a" d="M507.407,294.974a.791.791,0,0,0-.774-.774H471.966a4.873,4.873,0,0,0-4.865,4.866v127a4.873,4.873,0,0,0,4.865,4.866h34.612a.735.735,0,0,0,.691-.387.775.775,0,0,0-.221-1h0a7.068,7.068,0,0,1-2.9-5.723V301.3a7.043,7.043,0,0,1,2.958-5.723v-.028A.716.716,0,0,0,507.407,294.974Z" transform="translate(-467.1 -294.2)"/><path class="a" d="M1272.455,391.334c-.055-15.951-8.238-25.682-19.047-32.4a2.741,2.741,0,0,1,.055-4.644c7.658-4.727,11.777-13.353,11.943-22.5.58-20.319-15.62-37.487-35.939-37.487H1205v.028a.742.742,0,0,0-.746.581.757.757,0,0,0,.5.885v.028a34.383,34.383,0,0,1,24.355,32.759c0,14.431-4.81,26.871-17.527,31.9a2.348,2.348,0,0,0,0,4.34,34.385,34.385,0,0,1,21.757,31.9h0a34.42,34.42,0,0,1-24.3,32.759v.028a.75.75,0,0,0-.553.553.784.784,0,0,0,.58.94c.055.028.111,0,.166,0v.028h21.757l.055-.055C1255.84,430.148,1272.538,414.252,1272.455,391.334Z" transform="translate(-1000.455 -294.272)"/></g></g></g></svg>