<svg xmlns="http://www.w3.org/2000/svg" width="47.548" height="67.521" viewBox="0 0 47.548 67.521"><defs><style>.a{fill:#fff;}</style></defs><g transform="translate(-75.726)"><g transform="translate(75.726)"><path class="a" d="M99.5,0A23.99,23.99,0,0,0,75.726,24.147V43.375a23.776,23.776,0,1,0,47.548.074v-19.3A23.99,23.99,0,0,0,99.5,0Zm19.3,43.449a19.305,19.305,0,1,1-38.6-.075V24.147a19.306,19.306,0,1,1,38.6,0Z" transform="translate(-75.726)"/></g><g transform="translate(97.264 18.483)"><path class="a" d="M241.282,140.15a2.236,2.236,0,0,0-2.236,2.236v7.825a2.236,2.236,0,0,0,4.472,0v-7.825A2.236,2.236,0,0,0,241.282,140.15Z" transform="translate(-239.046 -140.15)"/></g></g></svg>