<svg xmlns="http://www.w3.org/2000/svg" width="30.716" height="47.809" viewBox="0 0 30.716 47.809"><defs><style>.a{fill:#fff;}</style></defs><path class="a" d="M33.637,0H10.816A3.735,3.735,0,0,0,6.87,3.484V44.33a3.735,3.735,0,0,0,3.946,3.479H33.637a3.739,3.739,0,0,0,3.949-3.479V3.484A3.741,3.741,0,0,0,33.637,0Zm.989,38.736H9.83V5.877h24.8Zm-7.109-35.2H16.937V2.518H27.519l0,1.017Zm4.528-.465a1.02,1.02,0,0,1-2.023,0,1.02,1.02,0,0,1,2.023,0Zm-5,41.027H17.408V41.484h9.636Z" transform="translate(-6.87)"/></svg>