<svg xmlns="http://www.w3.org/2000/svg" width="126.214" height="85.5" viewBox="0 0 126.214 85.5"><defs><style>.a{fill:#103b9b;}.b{fill:#fff;}.c{fill:#ed1f34;}</style></defs><g transform="translate(0 -129.032)"><path class="a" d="M24.807,248.016V232.411l23.408,15.605Z" transform="translate(-20.893 -87.069)"/><path class="a" d="M25.807,234.279v15.153H48.536Z" transform="translate(-21.735 -88.642)"/><path class="a" d="M154.567,153.839h27.886V172.43Z" transform="translate(-130.181 -20.893)"/><path class="a" d="M185.077,154.839H157.87l27.207,18.138Z" transform="translate(-132.963 -21.735)"/><path class="a" d="M24.807,468.678H48.215L24.807,484.283Z" transform="translate(-20.893 -286.061)"/><path class="a" d="M25.807,469.678v15.153l22.729-15.153Z" transform="translate(-21.735 -286.903)"/><path class="a" d="M468.678,153.839h27.886L468.678,172.43Z" transform="translate(-394.736 -20.893)"/><path class="a" d="M496.885,154.839H469.678v18.138Z" transform="translate(-395.578 -21.735)"/><path class="a" d="M626.825,248.016l23.408-15.605v15.605Z" transform="translate(-527.932 -87.069)"/><path class="a" d="M652.857,249.432V234.279l-22.729,15.153Z" transform="translate(-530.714 -88.642)"/><path class="a" d="M154.567,546.914l27.886-18.591v18.591Z" transform="translate(-130.181 -336.296)"/><path class="a" d="M157.87,548.33h27.207V530.191Z" transform="translate(-132.963 -337.869)"/><path class="a" d="M626.825,468.678h23.408v15.605Z" transform="translate(-527.932 -286.061)"/><path class="a" d="M652.857,484.831V469.678H630.128Z" transform="translate(-530.714 -286.903)"/><path class="a" d="M468.678,546.914V528.323l27.886,18.591Z" transform="translate(-394.736 -336.296)"/><path class="a" d="M469.678,548.33h27.207l-27.207-18.139Z" transform="translate(-395.578 -337.869)"/><path class="b" d="M480.583,154.839l-27.207,18.138V154.839h-3.054v30.739h51.1v-3.053H478.69l22.729-15.153V156.607l-38.876,25.918h-9.166v-7.588l30.144-20.1Z" transform="translate(-379.276 -21.735)"/><path class="b" d="M46.642,481.061,73.85,462.923v18.139H76.9V450.322h-51.1v3.054H48.536L25.807,468.528v10.765l38.876-25.918H73.85v7.59l-30.143,20.1Z" transform="translate(-21.735 -270.601)"/><path class="c" d="M52.217,496.679l42-28h2.032v2.939L58.658,496.679Z" transform="translate(-43.979 -286.061)"/><path class="c" d="M97.049,469.678,55.52,497.364h5.872l37.483-24.989v-2.7Z" transform="translate(-46.761 -286.903)"/><path class="c" d="M57.831,190.547,24.807,168.478v-4.3l39.555,26.37Z" transform="translate(-20.893 -29.6)"/><path class="c" d="M25.807,166.045v3.922l32.914,22h5.963Z" transform="translate(-21.735 -31.174)"/><path class="c" d="M524.476,468.678h6.24l33.315,22.263v4.107Z" transform="translate(-441.73 -286.061)"/><path class="c" d="M566.654,495.6v-3.728l-33.205-22.189h-5.671Z" transform="translate(-444.511 -286.903)"/><path class="c" d="M468.678,181.84V178.9l37.593-25.064h6.441l-42,28Z" transform="translate(-394.736 -20.893)"/><path class="c" d="M471.5,182.525l41.529-27.686h-5.872L469.678,179.83v2.695Z" transform="translate(-395.578 -21.735)"/><path d="M126.215,212.483V131.068c0-.012,0-.024,0-.036,0-.055,0-.109-.009-.164,0-.023-.006-.046-.01-.069-.006-.043-.011-.086-.02-.129s-.014-.059-.021-.089-.016-.069-.027-.1-.024-.07-.037-.105-.019-.055-.03-.081c-.018-.043-.038-.084-.058-.125-.009-.019-.017-.037-.027-.056-.028-.052-.058-.1-.09-.152l-.012-.021v0c-.038-.057-.078-.112-.122-.164-.02-.024-.042-.046-.062-.069s-.045-.052-.07-.077-.071-.066-.107-.1c-.013-.011-.026-.024-.039-.035-.035-.029-.071-.054-.108-.08-.017-.013-.034-.026-.052-.038s-.064-.04-.1-.059-.049-.031-.075-.044-.053-.026-.079-.038-.067-.033-.1-.048l-.06-.022c-.042-.016-.084-.032-.127-.045l-.048-.012c-.047-.013-.095-.026-.144-.036l-.065-.01c-.047-.008-.094-.016-.142-.02s-.126-.009-.19-.009H2.032q-.1,0-.19.009c-.055.005-.11.014-.164.023l-.043.007c-.053.011-.105.024-.157.039l-.034.009c-.047.014-.092.031-.137.049-.017.006-.034.011-.05.018-.038.016-.075.034-.111.052s-.047.021-.07.034-.057.033-.085.05-.059.034-.087.053-.041.03-.062.045-.066.047-.1.073-.033.03-.049.044c-.033.029-.066.057-.1.089s-.057.062-.085.093-.033.034-.048.053q-.065.079-.122.164l0,0-.014.024c-.031.048-.061.1-.089.148-.01.019-.018.039-.028.058-.02.04-.04.081-.057.122s-.02.055-.03.083-.026.068-.036.1-.018.069-.027.1-.015.058-.021.088-.014.086-.02.129c0,.023-.007.045-.009.068-.006.055-.007.11-.008.164,0,.012,0,.024,0,.035V212.5c0,.012,0,.024,0,.036,0,.055,0,.109.008.164,0,.023.006.046.009.069.006.043.011.086.02.129s.014.059.021.089.016.069.027.1.024.07.037.1.019.055.03.082c.017.042.038.083.058.124.009.019.017.038.027.056.028.052.058.1.09.152l.012.021v0a2.031,2.031,0,0,0,.143.188c.016.019.033.036.049.054.035.039.072.076.11.112l.064.058c.04.035.083.067.126.1.018.013.035.028.054.04a2.076,2.076,0,0,0,.191.115l.048.023c.053.026.107.051.162.073l.063.023c.052.019.106.035.16.049l.065.016c.056.013.113.023.17.031l.059.009a2,2,0,0,0,.221.013H124.187a2.033,2.033,0,0,0,.221-.013l.058-.009c.058-.008.115-.018.171-.031l.063-.016c.055-.015.109-.031.161-.05l.061-.023c.056-.022.111-.047.164-.074l.046-.022a2.155,2.155,0,0,0,.192-.115c.018-.012.035-.026.052-.039.044-.032.086-.065.127-.1l.063-.058c.038-.036.075-.074.111-.112.016-.018.033-.035.049-.053a2.069,2.069,0,0,0,.143-.188v0l.012-.021c.032-.049.062-.1.09-.152.01-.018.018-.037.027-.056.02-.041.04-.082.058-.125.011-.027.02-.054.03-.081s.026-.069.037-.105.018-.069.027-.1.015-.059.021-.089.014-.086.02-.129c0-.023.007-.046.01-.069.006-.055.007-.109.009-.164,0-.012,0-.024,0-.036v-.007A.024.024,0,0,0,126.215,212.483ZM74.1,158.095,111.583,133.1h5.872L75.927,160.789h7.34l38.876-25.918v28.971h-51.1V133.1h33.2L74.1,153.2Zm-18.932,5.748H4.072V143.691l25.586,17.1h7.328l-32.914-22v-3.922l38.877,25.918h7.34L8.759,133.1H55.168v30.739Zm-3.054,21.629L14.631,210.461H8.759l41.529-27.686h-7.34L4.072,208.693V179.721h51.1v30.739h-33.2l30.143-20.1v-4.893Zm18.932-5.75h36.847a2.036,2.036,0,0,0,2.036-2.036h0a2.035,2.035,0,0,0-2.036-2.036H69.011a2.035,2.035,0,0,0-2.036,2.036v32.775H59.24V177.686A2.035,2.035,0,0,0,57.2,175.65H4.072v-7.736H57.2a2.036,2.036,0,0,0,2.036-2.036V133.1h7.736v32.775a2.036,2.036,0,0,0,2.036,2.036h53.132v7.736h-6.107A2.035,2.035,0,0,0,114,177.686h0a2.036,2.036,0,0,0,2.036,2.036h6.107v20.346L96.266,182.775H88.938l33.206,22.189v3.728L83.267,182.775h-7.34l41.529,27.686H71.047V179.721Z"/><path class="b" d="M73.85,172.977,46.642,154.839H30.495l41.529,27.686H51.393l-25.586-17.1v1.946l22.729,15.153H25.807v3.053H76.9V154.839H73.85Z" transform="translate(-21.735 -21.735)"/><path class="b" d="M453.376,452.056l27.207,18.139h16.148L455.2,442.509h20.339L501.419,459.8v-2.14L478.69,442.509h22.729v-3.054h-6.107a2.036,2.036,0,0,1-2.036-2.036H489.2a2.036,2.036,0,0,1-2.036,2.036H450.322V470.2h3.054V452.056Z" transform="translate(-379.276 -259.734)"/><path class="c" d="M79.975,231.512V198.579A1.88,1.88,0,0,0,78.1,196.7H24.807V188.65H78.1a1.88,1.88,0,0,0,1.878-1.878V153.839h8.051v32.933A1.88,1.88,0,0,0,89.9,188.65h53.29V196.7h-6.265a1.88,1.88,0,0,0-1.878,1.878v.158h-4.387v-.158a1.88,1.88,0,0,0-1.878-1.878H89.9a1.88,1.88,0,0,0-1.878,1.878v32.933Z" transform="translate(-20.893 -20.893)"/><path class="c" d="M135.736,199.421a2.035,2.035,0,0,1,2.036-2.036h6.107V189.65H90.746a2.036,2.036,0,0,1-2.036-2.036V154.839H80.975v32.775a2.036,2.036,0,0,1-2.036,2.036H25.807v7.736H78.939a2.035,2.035,0,0,1,2.036,2.036V232.2H88.71V199.421a2.035,2.035,0,0,1,2.036-2.036h38.882a2.035,2.035,0,0,1,2.036,2.036h4.072Z" transform="translate(-21.735 -21.735)"/></g></svg>